<?xml version="1.0" standalone="no"?>
<!DOCTYPE svg PUBLIC "-//W3C//DTD SVG 20010904//EN"
 "http://www.w3.org/TR/2001/REC-SVG-20010904/DTD/svg10.dtd">
<svg version="1.0" xmlns="http://www.w3.org/2000/svg"
 width="225.000000pt" height="225.000000pt" viewBox="0 0 225.000000 225.000000"
 preserveAspectRatio="xMidYMid meet">
<metadata>
Created by potrace 1.16, written by Peter Selinger 2001-2019
</metadata>
<g transform="translate(0.000000,225.000000) scale(0.100000,-0.100000)"
fill="#000000" stroke="none">
<path d="M0 1125 l0 -1125 1125 0 1125 0 0 1125 0 1125 -1125 0 -1125 0 0
-1125z m1565 804 c24 -6 55 -24 72 -41 28 -29 28 -30 28 -156 0 -108 -4 -138
-24 -197 -63 -185 -134 -281 -401 -545 -207 -205 -289 -299 -331 -382 l-19
-38 308 0 c387 0 452 -13 501 -100 46 -82 17 -174 -67 -213 -46 -22 -55 -22
-502 -22 l-455 0 -47 23 c-75 37 -93 76 -93 197 0 115 21 190 86 313 75 142
185 264 429 482 207 184 249 234 265 322 l7 37 -314 3 c-295 3 -315 4 -348 24
-98 57 -109 191 -21 253 62 45 113 50 509 50 239 1 389 -3 417 -10z"/>
</g>
</svg>
